<svg version="1.0" xmlns="http://www.w3.org/2000/svg" width="933.333" height="933.333" viewBox="0 0 700 700"><path d="M329.7.6c-.1.1-4.7.4-10.2.8-5.5.3-11.5.8-13.2 1.1-1.8.3-4.7.7-6.5.9-2.7.4-26.3 23.6-149.5 146.8L3.9 296.6l-.4 6.4c-.3 3.6-.9 10.7-1.3 15.8-.4 5.1-.7 13.7-.6 19.2 0 5.9-.3 10-.9 10-.9 0-.3 21.4.8 30 .3 1.9.7 5.7 1 8.5 1 8.2 5.3 27.3 8.7 38 15.1 48.1 40.4 85.6 81.8 120.9 12.9 11 38.7 26.8 57 34.9 23.9 10.5 52.4 18 78 20.4 18 1.7 51.6.5 65-2.2.8-.2 2.3-.4 3.4-.4 1.1-.1-3.2-3.5-10-8-46-30.6-83-75.2-104.4-125.6-7.4-17.5-15.9-45.2-18.4-60.5-.7-4.2-2.5-16.3-3.1-20.7-2.2-16-2.3-53.2-.1-66.3.3-1.4.8-4.8 1.1-7.5 1.4-10.8 2.2-14.9 4.1-22.5.7-3 1.5-6.9 1.8-8.6.9-4.7 8.2-27.1 12-36.5 3.6-8.9 12-26.6 15.8-33.4 5-8.7 15-24.4 18.2-28.6 1.2-1.5 3-3.9 4-5.3 1.1-1.5 2.7-3.6 3.5-4.6.9-1 3.1-3.8 5-6.2 5.8-7.3 30.1-31.1 39.4-38.7 40.4-32.6 86.6-53.2 138.9-61.8 13.6-2.2 27.9-3 47.8-2.8 12.4.2 24.1.6 26 .9 1.9.3 5.5.8 8 1.1 6.6.8 9.9 1.3 16 2.5 3 .6 6.6 1.3 8 1.6 21 4 54 16 74.7 27.3 4.8 2.7 9 4.7 9.2 4.5.4-.4-2.3-3-12.9-12.4-4.7-4.1-9.6-8.5-11-9.8-1.4-1.3-4.8-3.9-7.7-5.8-2.9-1.9-5.5-3.9-5.9-4.5-.7-1.1-22.9-15.9-23.8-15.9-.3 0-5.4-2.7-11.3-5.9-9.3-5.1-33.4-15.9-36.7-16.5-2.5-.5-9.2-2.9-10.3-3.9-.7-.5-1.3-.7-1.3-.4 0 .3-3.2-.5-7.1-1.8-3.9-1.4-10.6-3.4-14.8-4.6-4.2-1.1-8.1-2.7-8.6-3.4-1.9-2.4-40-10.7-57-12.4-7.4-.8-55-1.2-55.8-.5z"/><path d="M425 99c-8.3.8-22.3 3-21.8 3.5.2.2 5 3.4 10.8 7.2 30.3 20 58.3 48.1 79.3 79.6 9.6 14.4 9.5 14.2 16.5 27.7 15.2 29.1 25.9 62.9 29.7 93.5.3 2.7.8 6.3 1 8 1.4 9.6 2 39.6 1 52-1.3 17-3.2 29.8-6.7 44.5-1.1 4.7-2.1 9.3-2.3 10.4-2.1 10-12.2 37-19.3 51.6-6.8 14-20.8 37.4-24.9 41.8-.7.7-1.3 1.6-1.3 2 0 .4-1.4 2.2-3 4.1-1.7 1.8-3 3.7-3 4 0 .3-1.2 1.9-2.6 3.4-1.4 1.5-4.7 5.3-7.3 8.5-6.4 7.6-24 24.8-33.6 32.8-10.1 8.4-34.2 25.4-36 25.4-.4 0-2 .9-3.5 2-4.5 3.2-27.5 14.5-38.7 18.9-19.4 7.7-47.1 15.1-65.8 17.6-2.7.4-6.1.8-7.5 1-26.2 3.5-63.3 1.8-91.8-4.1-17-3.6-21.6-4.8-37.2-10.1-15.5-5.3-43.9-18.1-47.4-21.4-.6-.5-1.5-.9-2-.9-.6.1 0 1 1.4 2.1 1.4 1.2 5.5 5 9.2 8.4 3.7 3.5 7.9 7.2 9.5 8.2 1.5.9 3 2 3.3 2.4.5.6 6.4 4.7 24.1 16.7 4.2 2.9 8.6 5.2 9.7 5.2 1.2 0 2.4.5 2.7 1 1.1 1.8 7.5 5.5 24.3 13.9 26.7 13.5 52 22.8 77.2 28.6 8.6 1.9 10.8 2.5 13 2.9 1.4.2 4.8.9 7.7 1.5 2.9.6 8.1 1.3 11.5 1.6 3.5.4 6.9.8 7.6 1.1 7 2.2 58 2.2 77.2 0 1.9-.3 6.2-.7 9.5-1.1l6-.6 146.1-146.1C628 467.5 694.2 402 694.8 402.4c2.6 1.6 4.6-18.7 4.7-46.9 0-27.9-.8-37.8-4.2-54-.8-3.9-1.7-8.1-1.9-9.5-1.2-6.5-8.7-29.7-12.5-38.6-8.2-19.3-21.9-43.1-31.8-55.3-2-2.5-4.3-5.4-5.1-6.5-24.8-31.6-63.3-59.9-102.5-75.4-9.3-3.6-14.3-5.3-28.4-9.6-4.8-1.4-25.7-5.5-37.1-7.1-6.4-1-42.1-1.3-51-.5z"/></svg>