<svg width="23" height="17" fill="none" xmlns="http://www.w3.org/2000/svg"><path d="M19.611 0H2.732A2.734 2.734 0 0 0 0 2.732v11.536A2.734 2.734 0 0 0 2.732 17h16.875a2.734 2.734 0 0 0 2.732-2.732V2.736A2.731 2.731 0 0 0 19.611 0zm1.484 14.268c0 .818-.665 1.484-1.483 1.484H2.732a1.485 1.485 0 0 1-1.484-1.484V2.736c0-.818.666-1.483 1.484-1.483h16.875c.818 0 1.483.665 1.483 1.483v11.532h.005z" fill="#005FA3"/><path d="M14.088 8.357l5.463-4.9a.627.627 0 0 0 .047-.882.627.627 0 0 0-.883-.047L11.18 9.29 9.71 7.978c-.005-.005-.01-.01-.01-.014a.923.923 0 0 0-.101-.088l-5.98-5.352a.623.623 0 0 0-.883.05.623.623 0 0 0 .051.883l5.528 4.941-5.505 5.154a.626.626 0 0 0 .855.915L9.253 9.24l1.516 1.354a.624.624 0 0 0 .832-.005l1.558-1.396 5.556 5.279a.623.623 0 0 0 .86-.906l-5.487-5.21z" fill="#005FA3"/></svg>